<svg width="62" height="62" viewBox="0 0 62 62" fill="none" xmlns="http://www.w3.org/2000/svg">
<path d="M42.1481 37.742C42.2455 38.2786 42.2888 38.7456 42.2563 39.223C42.076 41.8261 40.2183 43.7218 37.881 44.1191C34.1549 44.7533 31.648 41.9794 30.9626 38.2263C30.2232 34.1666 31.8031 30.7341 35.4065 30.1208C38.0217 29.6748 40.2436 31.114 41.1454 33.1351C41.3401 33.5359 41.4844 34.1039 41.5638 34.5255L42.1481 37.742ZM38.6024 18.3284L40.6223 29.3925L40.543 29.4064C39.4068 28.1031 37.2209 27.0961 34.2487 27.6013C29.6136 28.3924 26.3023 32.8215 27.4674 38.9825C28.4954 44.6139 32.7842 47.7885 37.4229 47.0009C40.5538 46.4678 42.5665 44.5094 43.2194 42.2652L43.3385 42.2443L44.0851 45.4293L47.1692 44.9031C46.859 43.6521 46.4369 41.7913 46.1376 40.143L42.0507 17.7395L38.6024 18.3284Z" fill="#EFE4C9"/>
<path d="M42.1481 37.742C42.2455 38.2786 42.2888 38.7456 42.2563 39.223C42.076 41.8261 40.2183 43.7218 37.881 44.1191C34.1549 44.7533 31.648 41.9794 30.9626 38.2263C30.2232 34.1666 31.8031 30.7341 35.4065 30.1208C38.0217 29.6748 40.2436 31.114 41.1454 33.1351C41.3401 33.5359 41.4844 34.1039 41.5638 34.5255L42.1481 37.742ZM38.6024 18.3284L40.6223 29.3925L40.543 29.4064C39.4068 28.1031 37.2209 27.0961 34.2487 27.6013C29.6136 28.3924 26.3023 32.8215 27.4674 38.9825C28.4954 44.6139 32.7842 47.7885 37.4229 47.0009C40.5538 46.4678 42.5665 44.5094 43.2194 42.2652L43.3385 42.2443L44.0851 45.4293L47.1692 44.9031C46.859 43.6521 46.4369 41.7913 46.1376 40.143L42.0507 17.7395L38.6024 18.3284Z" stroke="#EFE4C9" stroke-width="0.946"/>
<path d="M16.039 4.99418C15.904 5.2398 15.5902 5.07215 15.4661 5.34896C15.6631 5.46202 15.6194 5.69594 15.8566 5.78951C16.039 5.39964 16.4915 5.63356 16.674 5.2437C16.6704 5.03317 16.1558 5.07605 16.1741 4.85773C16.5791 4.86942 16.9842 4.09749 17.3601 4.54973C17.2688 4.84993 16.6047 4.61991 16.809 5.10724C17.371 5.27878 18.1447 4.91621 18.7979 4.82264C18.6446 5.36845 18.776 5.77392 18.7614 6.24955C18.0096 6.64722 17.4549 7.48933 16.5353 7.50103C15.5683 9.0449 13.3787 9.30611 12.9627 11.1151L12.5649 10.9591C11.8971 11.5829 11.7183 12.4094 10.9154 12.6278C10.6345 11.6726 8.8901 12.2886 9.61265 13.275C10.4593 13.2983 9.97758 13.9845 10.1454 14.3471C9.95204 14.3042 9.75497 14.2574 9.71118 14.5615C9.90095 14.7603 9.85715 14.9241 10.0141 15.2555C10.5213 15.0527 10.317 14.3042 10.8242 13.9338C10.7877 14.1015 10.9702 13.9377 10.9556 14.082C10.6089 14.2886 10.7695 14.7136 10.3425 15.0917C11.1271 15.3997 11.284 15.9144 11.7803 16.4212C11.9226 16.2457 12.1781 16.3198 12.2219 15.9183C12.0723 15.8637 12.0759 15.7857 12.2 15.7155C11.7183 15.696 11.4957 15.8481 11.5139 15.3529C11.846 15.4309 11.7694 15.3997 12.0686 15.5674C12.2255 15.1229 12.8824 15.2672 12.627 14.7253C12.419 15.3179 12.0139 14.5264 11.6854 14.8422C11.7876 14.6512 11.6015 14.6005 11.7511 14.3861C11.3607 14.2457 11.3424 14.9631 10.9629 14.85C11.2402 14.4173 11.1745 14.195 11.1527 13.7701C11.284 13.7701 11.3972 13.7233 11.5285 13.7233C11.3716 13.926 11.8898 14.1444 11.8679 14.0469C11.6234 13.7116 11.8716 13.852 12.0358 13.8247C11.8643 13.7467 12.1234 13.4504 12.1307 13.2828C11.7694 13.0488 11.8752 13.657 11.7475 13.6141C11.7657 13.505 11.6781 13.5284 11.5906 13.5518C11.7073 13.1775 11.7146 12.9358 11.8497 12.7876C11.9664 12.9163 11.9993 13.1658 12.1672 12.9124C12.0139 12.7057 11.9044 12.4796 11.9737 12.1638C12.1088 12.117 12.2949 12.195 12.4299 12.1482C12.4299 12.2886 12.1854 12.5498 12.3642 12.6044C12.6854 12.3393 12.2292 11.8987 12.7547 11.9884C12.6635 12.2457 12.5175 12.5303 12.8204 12.5888C12.9189 12.4133 12.7328 12.0313 12.9153 12.0469C13.0065 12.1911 12.9882 12.3861 13.2254 12.4562C13.6889 11.6804 13.6159 10.2574 14.7289 10.156C14.6487 10.0313 14.6487 9.86752 14.6049 9.72327C14.8603 9.69987 15.0391 9.50494 15.2544 9.39968C15.0902 9.64529 15.477 9.618 15.3785 9.83243C15.1048 9.59851 14.9917 10.0352 15.269 9.88701C14.9297 10.1833 14.9698 10.811 15.0245 11.1385C14.7071 11.0956 14.4735 11.4231 14.4735 11.696C14.8786 11.7311 15.1705 11.4816 15.1012 11.1697C15.1851 11.3139 15.269 11.3451 15.4187 11.2944C15.8785 10.503 16.8054 10.0741 17.5316 10.386C17.2141 9.80514 18.4403 9.80124 18.7395 9.22034C18.5388 9.59071 18.8928 9.89091 19.13 9.66089C18.9585 9.53613 19.3197 9.14236 19.1738 9.00591C18.7541 8.56536 18.7249 9.27102 18.3198 8.86556C17.6958 9.6297 16.955 9.07219 16.3529 9.35289C16.5463 9.06829 16.2799 9.01371 16.258 8.83437C16.7616 8.40162 17.1046 8.1677 17.6739 7.84801C17.6411 7.8636 17.736 8.03124 17.8053 7.99616C18.1447 7.80512 18.4293 7.02149 19.0862 7.14625C19.3343 7.71545 19.9146 7.92988 20.0241 8.08972C19.8708 8.23008 19.7358 8.48739 19.6664 8.62384C20.1262 8.80708 19.619 9.05659 19.8854 9.28662C19.9438 8.81488 20.4328 9.3295 20.535 8.96303C20.4474 8.91234 20.4948 8.79538 20.5423 8.67842C20.2284 8.62384 20.2357 8.40941 20.3707 8.12871C20.4401 8.33924 20.7211 8.12871 20.8196 8.39772C21.0094 8.22618 21.148 7.93768 21.4692 8.07413C21.4874 7.2866 22.5019 6.71739 22.8595 7.16964C22.8194 6.88893 22.9471 7.54391 23.1697 7.579C23.5639 6.93182 24.5711 7.64528 24.6149 6.50686C24.8229 6.53026 25.0199 6.52636 25.279 6.67061C25.695 6.15988 26.3118 6.117 26.7752 5.71154C26.538 5.48931 26.6147 5.37625 26.6001 5.16572C26.184 5.26319 25.9359 4.37429 25.5162 4.6472C25.6403 4.3509 25.7352 4.0663 25.3703 4.01562C25.1331 4.12478 25.2243 4.38599 25.2754 4.55753C24.3412 4.57702 23.7828 3.96883 22.7756 3.96883C22.9216 3.45811 22.4326 3.44641 22.2063 3.26707C22.1334 3.35284 22.0567 3.42692 21.9618 3.462C20.8963 3.39963 19.3745 3.94544 17.8345 3.68423M58.8669 37.3259C58.4509 38.0081 59.1808 37.7742 59.1625 37.2479C59.1041 37.3609 58.9582 37.2791 58.8669 37.3259ZM23.8302 60.3553L24.0164 60.2227C26.2132 60.6711 27.8006 60.328 29.8151 60.7607C29.9756 60.675 30.0559 60.406 30.2274 60.3436C31.8805 60.8465 33.4278 60.7451 35.0116 60.5697C35.1685 60.5736 35.143 60.1642 35.3145 60.2071C35.4313 60.3397 35.4349 60.5229 35.7342 60.5619C35.8874 60.5073 35.9677 60.289 36.1173 60.2305C36.6428 60.3085 37.3435 60.211 37.5406 60.0161C38.0843 60.3085 38.4346 59.6769 38.7996 60.0239C41.1971 59.1077 43.8684 59.4625 46.182 58.1798C47.6673 58.0044 48.7913 56.9985 50.2072 56.6671C50.3787 56.3474 50.2948 56.1525 50.3897 55.8718C51.0648 56.02 50.7947 54.8855 51.4516 55.1311C51.5538 55.443 51.0502 55.7432 51.4297 55.9888C51.8348 55.5053 52.3712 55.326 52.6449 54.5385C52.2654 53.5638 52.0391 52.9244 51.6414 51.9342C51.5647 52.1135 51.3786 52.0394 51.1852 51.9498C51.0648 51.5404 51.4552 51.1115 51.7472 50.823C52.6595 51.3572 52.6486 52.3474 52.9186 53.2012C53.2142 53.2792 53.2872 53.0843 53.5061 53.3338C53.3602 53.9108 53.1449 54.3162 52.8858 54.632C53.1704 54.632 53.0354 54.8387 53.1449 54.9244C53.4988 54.6281 53.8784 54.3903 54.1338 53.8679C54.0389 53.0453 53.3565 52.5151 53.3602 51.6418L52.8821 51.4546C52.9989 50.8074 52.1085 50.2343 52.8456 49.7119C52.7033 49.5014 52.5099 49.3143 52.5427 49.018C53.0171 48.1836 53.8966 47.4741 53.8163 46.3396C54.2579 46.246 54.4659 45.6066 54.9585 45.63C55.0826 45.0179 54.8418 44.3512 55.2687 43.9224C55.3344 43.6963 55.1337 43.244 55.0169 43.3415C54.4294 43.9614 53.2288 45.708 53.3456 46.9244C53.0755 46.8776 53.1558 46.671 52.9478 46.7684C53.0682 47.5676 52.2362 48.2109 51.6742 48.3903C51.6341 48.6437 51.6414 48.8776 51.6012 49.131C51.218 48.9634 50.9735 49.7353 50.9662 49.9419C50.2291 50.016 49.4445 49.9848 49.1453 51.0608C48.8679 50.9244 48.8168 51.3143 48.5541 51.2168C47.0287 53.4234 44.6055 53.5599 42.9086 55.3689C42.4342 55.3377 42.0511 55.5209 41.7956 55.9927C40.5074 56.0628 39.3652 57.2792 38.2303 57.2052C39.9126 56.5697 41.4854 55.6886 42.8284 54.2811C42.8065 54.1018 42.7408 53.9498 42.624 53.8172C41.4526 54.6593 40.0659 55.0141 39.0806 56.289C38.5186 56.4137 38.1755 57.0336 37.5114 56.9283C37.38 57.2363 37.2231 57.4781 36.9603 57.482C34.5847 57.2168 33.1943 58.2929 30.9974 58.3358C31.5448 58.0862 31.8696 57.4274 32.3914 57.1467C32.6542 57.0063 33.0374 57.0648 33.2819 56.9166C33.3986 56.8426 33.4899 56.4761 33.6431 56.3825C33.946 56.2032 33.9825 56.1642 34.2416 55.942C34.9167 55.3689 35.986 54.862 36.7195 54.2149C37.6318 53.4117 38.4821 52.632 39.2521 51.5443C39.0952 51.4585 39.3616 51.1622 39.128 51.1115C37.442 51.7314 36.4677 53.9926 34.7817 54.6164L34.6065 55.1272C34.3256 54.9322 34.2526 55.2246 34.0446 55.1973C33.4899 56.1915 32.1068 56.5502 31.2675 57.0024C30.4062 57.4703 29.9939 58.3007 28.9976 57.8523C28.786 57.6301 28.6655 57.3611 28.2094 57.2558C28.0816 57.2636 28.0853 57.5794 27.9357 57.5326C27.8955 57.5209 27.8627 57.5014 27.8262 57.4897L28.348 57.1155C27.5197 57.6886 27.2095 56.4917 26.3811 56.5424C23.9726 54.7256 22.1516 52.9634 19.2759 51.2324C19.1774 51.1505 19.0789 51.0686 18.9804 50.9829C18.6957 50.4916 18.2359 50.0901 17.7214 49.7119C17.0754 50.1875 17.8856 50.8191 17.8673 51.4039C17.8454 52.0316 17.4002 52.5891 17.2104 53.0726C16.4076 52.671 15.7763 53.6145 15.1194 54.0862C15.1048 54.0823 15.0866 54.0784 15.072 54.0667C15.0683 54.0862 15.072 54.1018 15.072 54.1213C15.0282 54.1525 14.9807 54.1798 14.937 54.2071C14.8348 54.3981 15.0209 54.4488 14.8713 54.6632C15.4661 55.1116 15.9806 55.9186 16.0865 56.3864C14.3531 56.25 12.908 54.9361 11.5176 54.4566L11.3753 54.363C11.368 54.3786 11.357 54.3903 11.3461 54.402C11.2402 54.3708 11.1344 54.3435 11.0286 54.324C10.6491 53.1973 9.39735 52.7178 9.1419 51.6651C6.66405 49.8717 5.66779 46.94 3.42349 44.9204C3.09506 44.0744 2.55131 43.3337 1.95648 42.6202C1.78132 42.1602 1.67914 41.3922 1.02592 41.3922C0.872647 42.6943 1.42734 43.9419 1.94918 45.0218C2.28492 45.7197 2.90894 47.1778 3.53297 48.0433C3.68259 48.2499 3.95263 48.2811 4.1132 48.4604C4.21903 48.5774 4.15699 48.7801 4.23728 48.8932C5.8539 51.2441 8.39015 53.0258 10.5688 54.6242C10.6856 54.5385 10.8388 54.5385 10.9738 54.4917C10.868 54.7334 11.0249 54.8426 11.0687 55.0102C12.4737 56.2188 13.9991 56.8855 15.5427 58.0005C17.3199 58.6789 19.9766 59.6613 22.0494 60.0473M52.8347 54.5073C53.0244 54.2383 53.2142 54.1018 53.0938 53.7431C53.0865 54.0901 52.707 54.3513 52.8347 54.5073ZM58.9399 36.5851C59.1662 36.8892 59.5822 36.7216 59.8668 37.0412C59.9471 36.741 59.7574 36.5773 59.5347 36.433C59.4362 36.9867 59.1078 36.1329 58.9399 36.5851ZM59.0056 35.0724C59.1333 35.2673 59.4691 35.3609 59.4472 35.6299C59.3304 35.6338 58.8925 35.6494 59.0932 35.8755C59.6807 35.9847 60.1259 36.5461 60.8923 36.6709C60.812 36.5227 60.8813 36.3005 60.7974 36.1523C60.5054 36.09 60.2974 36.2147 59.9945 36.1289L60.2828 35.279C59.9799 35.2323 59.0749 35.279 59.3559 34.8229C59.1297 34.6514 59.1552 35.0607 59.0056 35.0724ZM46.6638 40.3746L47.0615 40.5305C47.2732 40.3161 46.6309 40.0666 46.6638 40.3746ZM38.212 54.8816C38.0807 56.211 39.9673 54.8932 38.8105 54.441C38.4054 54.2851 38.2339 54.6554 38.212 54.8816ZM29.2275 5.93376C29.1655 5.97275 29.1107 6.03123 29.0706 6.117C29.1837 6.58094 29.6691 6.77197 30.1252 6.71739C30.2821 6.4055 30.0413 6.28854 30.0887 6.03123C29.7785 5.91037 29.4757 5.8051 29.264 5.90647C29.2531 5.90257 29.2458 5.89867 29.2348 5.89088C29.2312 5.91037 29.2312 5.91817 29.2275 5.93376ZM28.2203 2.80313C27.4175 2.50683 26.7424 2.95128 25.9651 3.07994C24.9798 3.24368 23.6697 2.70566 22.9581 3.45031C23.7317 4.10918 25.0819 3.61405 25.9797 3.56727C26.2096 3.85577 25.7643 4.0468 25.8775 4.39379C27.1073 4.86553 27.8846 3.68423 28.5962 4.87332C28.9502 4.87722 29.1728 4.58092 29.4136 4.32361C30.4464 4.55363 31.5849 3.91425 32.8841 4.70958C33.5227 4.57702 34.2124 4.72517 35.0153 5.05656C35.5554 5.27878 36.4239 5.62187 36.9457 6.00004C37.4238 6.34312 37.869 6.95131 38.3543 7.41136C38.8908 7.92208 39.2959 8.58096 40.0002 8.92014C40.3943 9.11118 40.9015 9.13457 41.1935 9.38408C41.854 9.94939 42.5109 10.2574 43.04 10.655L42.9378 10.3782C43.5035 10.7447 44.0217 11.1346 44.2917 11.6492C44.1676 11.9221 43.8721 11.7974 43.7699 12.1209C45.2551 13.4036 45.6529 15.2243 45.8354 17.1541C45.5325 17.236 45.3245 16.7604 45.1128 17.1619C45.3062 17.583 45.7478 17.4894 46.1383 17.8481C46.9776 21.0255 47.5286 24.3472 51.2545 26.0899C51.926 27.1425 52.207 28.3901 52.6923 29.5363C52.5719 31.4973 53.0719 32.9476 52.5537 34.9671C51.3385 37.5442 51.2801 41.166 49.9262 43.4701C50.0028 44.2694 49.2803 44.862 49.0358 45.8171C48.3716 46.4058 48.0432 47.3259 47.5031 48.2031C47.025 48.979 46.3426 49.5521 46.9155 50.1875C47.317 50.0511 47.525 49.4624 47.9264 49.3298C50.2145 45.4857 53.1157 40.5695 53.5536 35.4545C53.7105 33.5987 53.1814 31.6962 54.017 29.8638C53.9294 28.9671 54.1192 28.3043 54.1046 27.4934C54.0864 26.4719 53.7543 25.3413 53.7287 24.3667C53.7141 23.6571 53.9258 22.9553 53.7798 22.3666C53.6485 21.8364 53.174 21.4193 53.0135 20.9163C53.2251 19.5869 51.9953 18.9787 52.4588 17.5245C52.3457 17.3919 52.2763 17.2399 52.2544 17.0606C50.6451 16.1911 50.5867 14.5537 49.1051 13.6219C48.9482 13.3451 48.8278 13.0527 48.6708 12.7798C47.5359 12.1482 46.8608 11.0215 45.6419 10.8344C45.3719 10.5459 45.2515 10.1833 45.08 9.84412C45.569 9.72326 46.0069 10.3743 46.4594 10.2847C46.682 10.8149 47.5469 11.3763 48.0067 11.5595C48.295 12.4094 49.1963 12.6862 49.7547 13.2983C50.324 13.9182 50.74 14.6941 51.4735 15.1229C51.8895 16.0664 52.6814 16.8266 53.3091 17.6648C53.6594 17.6103 53.6996 17.5284 53.7798 17.08C54.1886 17.1112 54.5133 16.9475 55.0607 17.2906C56.7321 16.8734 56.9365 17.7506 57.9437 19.3374C57.5897 20.0001 56.827 19.8832 56.2869 20.2341C55.8198 20.5343 59.2027 21.0606 58.648 21.2828C58.4473 21.3647 57.9181 21.3062 57.6809 21.4816C57.1773 21.0723 56.4475 20.468 55.7212 20.6239C55.7979 20.2029 55.4038 20.0781 55.0133 20.0586C54.9403 19.9066 55.0607 19.661 55.1374 19.4348C54.7834 19.1736 54.6484 18.8149 54.1338 18.9475C53.8528 19.9222 54.4039 20.3042 54.6666 21.0801C55.4366 23.3296 55.4439 25.969 56.473 27.9378C56.5204 29.8872 57.097 31.5753 56.6445 33.778C56.9693 34.6045 56.5934 35.778 57.2722 36.4252C57.2722 35.934 57.4401 35.7547 57.878 35.7001C57.7502 35.6026 57.6298 35.0997 57.9948 35.3609C58.1371 34.9125 57.7758 34.7176 57.9145 34.2732C57.9948 34.0587 58.2575 34.2498 58.3998 34.1718C58.1991 33.1426 59.0238 33.3765 59.3961 33.8872C59.4581 33.6689 59.334 33.5636 59.5931 33.5792C60.1186 34.3355 60.9762 34.741 61.644 34.9554C61.8995 34.4837 61.3047 34.2771 61.2171 33.8287C61.0747 33.1036 61.4105 31.9535 61.8593 31.6728C61.1149 31.123 60.6003 29.5519 61.3047 28.2848C60.7792 27.3647 57.0423 26.507 56.7978 25.3413C56.4694 23.7857 55.6811 22.6863 56.7248 20.7916C57.9035 20.2341 59.0567 21.1308 59.688 22.1366C59.8194 21.8832 59.6479 21.7818 59.8121 21.5089C59.0567 20.5694 59.1224 19.2204 58.1809 18.3744C58.3633 17.7506 57.7065 17.3841 57.951 16.9397C57.5495 16.6278 57.3452 16.234 57.524 15.813C56.057 14.1444 55.3381 11.7311 53.2689 10.6005C52.6413 8.98252 50.4444 8.1521 49.2438 6.82265C49.0212 6.66671 48.9226 6.79536 48.7365 6.72129C48.7 6.52635 48.4884 6.42109 48.4555 6.22616C47.722 6.16768 47.5396 5.68034 46.952 5.35286C44.9267 4.22614 41.8248 3.53997 40.0768 3.06434C38.7959 2.71346 37.5625 2.52242 36.3618 2.44055L36.2962 2.26901C36.0955 2.20273 35.9093 2.13255 35.8473 2C33.738 2.31189 35.0591 2.18324 33.0775 2.78363C31.9134 2.72125 30.7091 3.26317 29.6216 2.885M3.91613 31.0646C4.87224 30.7215 4.64963 29.1503 4.70437 28.4837C4.46718 28.3355 4.40513 28.546 4.3066 28.3277C4.40513 28.0665 4.43068 27.8443 4.35039 27.6727C4.11684 28.0392 4.00006 27.7312 3.79206 27.4544C3.21182 28.1952 4.27741 29.123 3.3067 29.6689C3.19722 30.5461 3.21182 31.3609 3.59499 31.9925C3.95627 31.8872 3.8541 31.4194 3.91613 31.0646ZM43.9195 11.6999C43.7115 11.2398 43.4049 10.9319 43.0437 10.6589L43.6385 12.2652C43.7151 12.0352 43.7735 11.7662 43.9195 11.6999ZM14.3859 17.2438L13.9078 17.0567C13.7181 17.4348 14.0356 17.5557 13.9954 17.8598C13.9261 17.8559 13.8385 17.8013 13.8093 17.8832C14.1815 18.0781 14.1633 17.3841 14.3859 17.2438ZM14.2363 13.7194C14.0867 13.5635 14.5647 13.3217 14.3604 13.0956C14.1232 13.2594 14.1743 13.388 14.0283 13.544C14.291 13.4738 14.0538 13.9767 14.2363 13.7194ZM11.9154 19.7428L11.6782 19.6493C11.441 19.891 11.6599 20.4329 11.9737 20.6317C11.8606 20.2341 11.7365 20.1951 11.9154 19.7428ZM9.93745 26.8618C10.1528 27.0411 9.76958 27.0528 9.74039 27.1698C9.6528 27.0723 9.6528 26.932 9.6966 26.7682C9.84257 26.8072 9.85716 26.9944 9.93745 26.8618ZM9.95205 25.2322C9.4083 25.2906 8.94485 25.4778 8.88281 26.2575C9.09812 26.5031 9.34992 26.6201 9.53968 26.7059C9.23679 27.1074 9.84257 27.2673 9.41561 27.3335C9.61632 27.4193 9.41561 27.7078 9.61632 27.7975C9.82068 27.6298 10.0396 27.5012 10.1601 27.5285C10.0944 27.2166 10.6856 27.123 10.744 26.6006C10.2112 26.6435 9.53969 26.4797 9.26235 25.93C9.6747 26.1561 10.0104 25.5947 9.95205 25.2322ZM7.46689 26.1912C7.48148 25.9261 7.653 26.0158 7.6895 25.7975C7.52528 25.7624 7.57272 25.622 7.50703 25.5363C7.59826 25.8482 7.20049 25.9651 7.46689 26.1912ZM6.04732 30.3511C5.92324 30.4759 5.68604 30.3355 5.66414 30.6825C5.85026 30.7956 6.15315 30.4096 6.04732 30.3511ZM5.39045 26.7292C5.44154 26.1172 5.53642 26.7916 5.77363 26.3979C5.85027 26.7487 6.12031 26.8345 5.78093 27.1698C6.09841 27.3452 6.27723 27.1932 6.55457 27.279C6.49618 27.4349 6.55457 27.4817 6.68595 27.4271C6.50348 27.5324 6.6604 27.7429 6.38306 27.7897C6.05463 27.7663 6.22614 27.4895 5.96339 27.4349C5.78457 27.9066 5.90866 28.1679 5.80282 28.433C4.46354 28.0665 5.36126 30.4408 5.70795 28.9749C6.11302 29.045 6.26264 28.5265 6.65676 28.5733C6.7261 28.0782 7.55813 27.5012 7.9851 27.8404C7.92671 27.3608 8.32083 26.8189 7.94131 26.3823C7.61652 26.893 7.13117 26.3355 7.09467 25.9573C7.05818 26.1249 6.9414 26.1094 6.90126 26.2653C6.99614 26.429 7.41946 26.4329 7.29174 26.7058C7.02534 26.2926 6.92316 26.8813 6.72975 26.776C6.51079 26.6279 6.86842 26.624 6.84653 26.4368C6.58014 26.3316 6.5181 26.698 6.30279 26.7058C6.26629 26.2536 5.9999 25.9144 5.68971 25.6025C5.65687 25.8559 5.83933 25.9963 5.72621 26.2887C5.49995 26.3238 5.58024 26.2185 5.29924 26.2185C5.39048 25.739 5.55469 25.4193 5.81379 24.9748C5.60213 24.7838 5.62403 24.4797 5.45251 24.4485C5.55469 24.5421 5.64592 23.7545 5.83568 24.1171C5.91597 23.9573 5.78459 23.9066 5.7627 23.8013C6.29914 23.7234 7.12753 24.1444 6.52905 24.1951C6.09844 24.2341 5.9853 24.7955 6.21156 25.1308C7.30999 25.9807 8.06175 22.6434 8.94487 23.9807C8.99231 23.8403 9.18207 24.0196 9.24046 23.9027C9.15653 23.852 9.14923 23.7584 9.13828 23.6727C9.36089 23.8793 9.29155 23.4231 9.51416 23.6259C9.51781 23.9378 9.23317 23.5908 9.24046 23.9027C9.48132 23.9729 9.41928 24.1912 9.66013 24.2575C9.70027 24.1015 9.8061 24.0898 9.95572 24.1795C9.96302 23.622 10.5177 23.7701 10.8753 23.8637L10.9921 23.5245C10.6965 23.4621 10.5506 23.6376 10.3279 23.3608C10.2732 23.6025 9.80975 23.6649 9.8134 23.5479C10.2769 22.7643 11.1198 23.7818 11.5432 22.9709C11.514 23.1035 11.7074 23.123 11.8314 23.1814C12.0468 22.6122 13.1342 21.9767 12.7073 21.4036C12.3934 21.6882 11.992 21.7779 11.5723 21.8286C11.6782 21.8949 11.5979 22.0508 11.6453 22.1444C11.1198 22.3315 10.1382 22.1912 9.98856 21.9806C10.1929 21.8403 10.525 21.3841 10.171 21.1853C10.2075 21.5596 9.90463 21.8208 9.59444 21.8286C9.61269 21.3023 9.81705 21.544 9.85354 21.0644C9.71122 20.9865 9.64553 21.0917 9.50686 21.0255C9.47037 21.3373 9.28426 21.6258 9.34629 22.0235C8.96312 22.0586 8.44492 22.581 8.00701 21.9845C8.42667 21.9221 8.26976 21.3529 7.99971 21.2126C7.8428 21.3062 7.65303 21.3218 7.43773 21.2828C7.46692 21.197 7.40853 21.158 7.41583 21.08C7.43773 20.7292 7.69682 20.9163 7.74791 20.6317C7.67858 20.5264 7.57275 20.4368 7.37934 20.3939C7.29541 20.9826 6.26996 20.3666 5.76636 20.6317C6.12399 20.9007 6.14588 21.3373 6.51811 21.5986C6.85749 21.3179 7.47422 21.2126 7.57275 22.2029C7.21877 22.3978 6.94508 22.7838 6.48892 22.7448C6.61665 22.351 6.45242 22.1054 6.45972 21.7701C5.90869 21.7545 6.08385 21.852 5.5547 21.5167C5.45617 21.7935 5.27736 21.8871 5.21532 22.2496C5.02191 22.1561 4.91973 22.2847 4.81026 22.3822C4.33585 23.8403 3.69723 25.4621 3.86144 27.0138C4.04026 27.123 3.94903 26.6084 4.18622 26.8501C4.43437 27.0723 4.11689 27.1386 4.17163 27.4232C4.35045 27.5245 4.42343 27.6727 4.70078 27.7234C4.53653 27.3218 4.87591 26.468 5.39045 26.7292ZM12.2584 7.37237C11.8351 7.2749 11.368 7.49323 11.4117 8.00395C12.2073 8.06243 12.4627 6.88114 13.3349 7.11506C13.4407 6.84995 13.5137 6.60433 13.3787 6.46008C13.0685 6.90843 12.4518 6.65501 12.2584 7.37237ZM8.67479 16.5615C8.46678 16.2652 8.94484 16.2847 9.10905 16.3432C9.15285 16.0391 9.06161 15.8013 8.69669 15.7038C8.66019 15.9806 8.34635 16.3978 8.48867 16.5849C8.51057 16.5342 8.53611 16.4875 8.59815 16.5303C8.57991 16.5771 8.62735 16.6512 8.67479 16.5615ZM19.6701 8.61994C19.6676 8.61994 19.6664 8.61864 19.6664 8.61604C19.608 8.76419 19.619 8.7291 19.6701 8.61994ZM20.4984 4.32361C21.1006 4.87722 22.0567 4.53024 22.7318 4.90451C22.6369 5.09554 22.4982 5.17352 22.4508 5.46981C21.8122 5.53609 20.2977 5.62966 19.7467 5.47761C19.816 5.25929 19.8416 5.39574 19.9328 5.45422C20.1007 5.2242 20.6773 4.9396 20.4984 4.32361ZM23.666 5.07216C23.4653 5.33337 23.1515 5.56729 22.9873 5.48152C22.9033 5.43084 22.9727 5.38015 23.0164 5.39575C22.8778 4.9435 23.1588 4.80315 23.666 5.07216ZM18.4804 12.1015C18.5789 12.043 18.9511 11.4504 18.6337 11.3919C18.7212 11.6492 18.3198 11.8091 18.4804 12.1015ZM19.4438 7.95327C19.3635 8.1599 19.2066 8.1599 19.2978 8.37823C19.4912 8.4718 19.5934 8.34314 19.7029 8.24567C19.546 8.1833 19.681 7.97667 19.4438 7.95327ZM16.6302 13.3022C17.1448 13.6687 17.506 12.8929 17.506 12.5849C17.4659 12.6941 17.2506 12.6083 17.2688 12.4913C17.5717 12.4952 17.5863 12.6824 17.7761 12.5927C17.6885 12.542 17.7359 12.425 17.7834 12.3081C17.4002 12.2808 17.4221 12.195 17.1776 11.9767C17.3674 12.7369 16.5828 12.6122 16.6302 13.3022ZM16.0135 13.2555C15.8602 12.8344 15.8602 12.5732 15.8274 12.2223C15.5683 12.464 15.7106 12.6901 15.5391 13.0722C15.7361 13.2204 15.758 12.967 15.915 13.0254C15.8858 13.1346 15.8675 13.236 16.0135 13.2555ZM15.9223 11.6804C15.9442 11.2827 15.477 11.4231 15.3895 11.6648C15.4661 11.8558 15.8493 11.9611 15.9223 11.6804ZM15.3785 13.0098C15.6887 12.8929 15.1887 12.3471 15.0172 12.4835C15.1012 12.5693 14.9807 13.0995 15.2471 12.8617C15.1158 12.62 15.4004 12.8968 15.3785 13.0098ZM14.1049 14.6317L14.0173 14.8851C14.4187 15.2555 14.8092 15.5947 15.3384 15.4972C15.5975 14.6278 14.4224 15.0332 14.1049 14.6317ZM14.5027 12.6707L14.3859 13.0098L14.7034 13.1346C14.5209 13.427 14.4698 13.6336 14.4443 13.8987C14.8712 13.6765 14.8019 14.2574 15.1522 14.464L15.3566 13.8675C14.853 13.6648 15.3457 13.5401 15.2617 13.349C15.061 13.3958 14.9406 13.6219 14.718 13.618C14.8238 13.3412 14.7983 12.9358 14.5027 12.6707ZM14.0392 15.0878C13.7801 14.9514 13.6487 15.1034 13.4772 15.158C13.6889 15.1892 13.9553 15.3451 14.0392 15.0878ZM8.91929 26.9476C9.22583 27.5831 8.79156 27.8443 8.42663 28.394C9.53236 29.2439 9.65279 27.0373 8.91929 26.9476ZM13.324 14.8071C13.0868 14.6707 12.97 14.8071 12.7875 14.7915C12.6525 15.119 13.0393 15.1853 12.9043 15.5089C12.8167 15.2984 12.6598 15.4543 12.4773 15.4387C12.1817 16.3549 13.4918 16.2223 13.6779 15.618C13.5028 15.4543 13.375 15.2243 13.1999 15.4309C13.3678 15.1658 13.1962 15.0605 13.324 14.8071ZM6.25167 30.8151C6.25167 30.9788 6.63119 30.9554 6.59105 31.1386C6.40859 31.3375 6.25167 31.4817 6.28086 31.7897C7.01801 31.9418 6.95962 30.7839 6.74432 30.4291C6.69323 30.5266 6.63849 30.4486 6.58375 30.3667C6.47792 30.5266 6.30276 30.5344 6.25167 30.8151ZM10.4629 20.043C10.2659 19.9963 10.1199 20.0625 9.87904 19.9105L9.79145 20.1639C10.0506 20.2692 10.0141 20.5226 10.368 20.5811C10.4483 20.3783 10.5177 20.1795 10.4629 20.043ZM5.46342 31.279C5.53275 31.3843 5.63858 31.4739 5.83199 31.5168C5.91592 31.3102 5.91227 31.1464 5.8174 31.0295C5.76996 31.1231 5.66048 31.0724 5.551 31.0217L5.46342 31.279ZM13.9845 6.79147C14.3348 6.53416 14.6669 6.23786 15.0464 6.05072C14.6997 5.38405 13.9005 6.0975 13.6159 6.55365C13.8641 6.56924 13.7801 6.75248 13.9845 6.79147ZM6.69323 26.0821C7.05451 26.2731 7.06911 25.6883 6.97422 25.5207C6.93773 25.8365 6.74432 25.7975 6.69323 26.0821ZM8.57991 21.3335C8.87915 21.5011 8.80251 21.4739 9.13824 21.5479C9.11635 21.0489 9.35355 21.1581 9.50682 20.7292C9.0689 20.7253 8.5872 20.3861 8.38649 20.5811C8.45218 20.8735 8.83901 21.0801 8.57991 21.3335ZM10.6928 17.2477L10.7512 17.0801C10.4228 16.8734 10.4228 16.6122 10.3462 16.1522C10.1527 16.3237 9.95568 17.2711 9.73673 16.8773C9.80606 16.8812 9.85351 16.8422 9.8754 16.737C9.76592 16.698 9.71483 16.6278 9.66739 16.5576C9.63819 17.1424 9.22582 16.8539 9.08715 17.197C9.24042 17.3802 9.46303 17.5284 9.41924 17.8052C9.87174 17.6804 10.317 17.5479 10.6928 17.2477ZM8.3208 19.9807C8.47407 19.93 8.59814 19.813 8.80615 19.8793C8.94847 19.5479 8.51056 19.5089 8.47407 19.2672C8.44488 19.5518 8.20037 19.3452 8.17118 19.6298C8.40473 20.0235 8.01061 20.1015 7.8318 20.3627C8.17848 20.4485 7.66028 20.967 8.05441 21.0294C8.25512 20.6239 8.22228 20.6161 8.47407 20.3276C8.43028 20.2107 8.18943 20.1873 8.3208 19.9807ZM3.62784 32.971C2.8323 34.0782 3.54026 34.5968 3.64244 35.5753C4.41973 35.7547 4.19347 36.4291 4.46717 36.858C4.84669 35.3804 4.48541 34.4447 4.40148 33.0802C4.18618 32.8424 3.94533 33.0412 3.62784 32.971ZM9.3645 14.8071C9.36085 15.2789 9.59076 15.3179 9.93379 15.5089C9.90459 15.2126 9.70023 14.7292 9.3645 14.8071ZM5.75171 27.2556C5.35394 27.2049 4.99996 27.2478 4.75546 27.5402C4.87224 27.6727 4.87589 27.856 5.17512 27.895C5.36124 27.6688 5.65319 27.6844 5.75171 27.2556ZM10.8461 8.07413C10.452 8.28076 10.1491 8.69402 9.9046 9.24763C10.4739 9.3412 10.7987 8.87726 11.1563 8.48349C11.0687 8.33924 11.087 8.14431 10.8461 8.07413ZM5.3722 21.2399C5.63859 21.4349 5.832 20.9475 5.59845 20.8462C5.49627 20.9163 5.41234 21.0333 5.3722 21.2399ZM7.98873 17.2555C8.07996 16.9865 8.32811 16.8968 8.1128 16.6317C7.55811 17.236 7.1129 18.4173 6.57281 18.2458C5.86485 18.5537 6.36479 19.2594 6.08015 19.6883C6.39034 19.6454 6.41588 19.8676 6.5801 20.0742C6.67863 19.5986 7.21143 20.1132 7.44133 19.9261C7.60555 19.6571 7.47418 19.5323 7.45593 19.353C8.10185 19.1931 8.03981 18.3744 8.35365 17.7779C8.03982 17.6999 8.05076 17.4621 7.98873 17.2555ZM4.98903 15.2243C6.15679 12.6629 8.30622 11.8675 9.36451 9.51664C8.02888 10.0508 6.72243 11.0722 6.09476 12.7681C5.95608 12.9514 5.71524 12.9046 5.55101 13.0371C4.24092 15.0605 2.68633 16.7877 2.04406 19.3686L2.28126 19.4622C3.04395 18.1015 3.93802 16.9436 4.47447 15.4075C4.66424 15.3841 4.82846 15.3062 4.98903 15.2243ZM1.79226 19.8481C1.25216 20.312 0.956576 21.2828 1.14634 22.0041C1.25946 21.4817 2.52211 20.5265 1.79226 19.8481Z" fill="#175445"/>
<path d="M18.945 27.3986H12.5423V23.9454H18.945V21.809C18.945 16.1739 20.6515 12.493 28.0679 12.493C29.3477 12.493 30.416 12.6296 31.4297 12.7662L31.2145 16.2194C30.6275 16.0373 29.6686 15.9462 28.8153 15.9462C24.4946 15.9462 23.9622 18.3102 23.9622 21.4448V23.9454H31.1635V27.3986H23.9622V47.1199H18.9487V27.3986L18.945 27.3986Z" fill="#175445"/>
</svg>
